<svg width="256" height="256" viewBox="0 0 256 256" fill="none" xmlns="http://www.w3.org/2000/svg">
<g clip-path="url(#clip0_107_124)">
<rect width="256" height="256" rx="128" fill="#7E7E7E"/>
<mask id="mask0_107_124" style="mask-type:luminance" maskUnits="userSpaceOnUse" x="0" y="0" width="256" height="256">
<path d="M197.12 0H58.88C26.3615 0 0 26.3615 0 58.88V197.12C0 229.639 26.3615 256 58.88 256H197.12C229.639 256 256 229.639 256 197.12V58.88C256 26.3615 229.639 0 197.12 0Z" fill="white"/>
</mask>
<g mask="url(#mask0_107_124)">
<mask id="mask1_107_124" style="mask-type:luminance" maskUnits="userSpaceOnUse" x="70" y="57" width="116" height="143">
<path d="M185.2 57H70V199.08H185.2V57Z" fill="white"/>
</mask>
<g mask="url(#mask1_107_124)">
<path fill-rule="evenodd" clip-rule="evenodd" d="M184.613 199.08H177.136H74.4162H70.5762V195.24V61.6081V57.7681H74.4162H126.448C138.001 57.7681 147.796 59.8207 155.586 64.2083C163.083 68.3756 168.97 74.1111 173.167 81.3851C177.36 88.654 179.44 96.6811 179.44 105.384C179.44 116.224 176.083 126.01 169.42 134.615L169.411 134.627L169.402 134.638C163.916 141.609 157.203 146.686 149.305 149.809L180.257 193.004L184.613 199.08ZM85.3602 153.192H129.712H129.774L129.836 153.19L133.742 153.064L156.204 184.296H85.3602V153.192ZM93.9831 72.5521L140.349 137.329C146.996 135.467 152.549 131.83 157.094 126.355C162.152 120.262 164.656 113.322 164.656 105.384C164.656 99.0051 163.1 93.2937 160.019 88.1597C156.961 83.0612 152.665 79.1443 147.031 76.3846L147.016 76.3777L147.002 76.3707C142.087 73.9128 135.377 72.5521 126.64 72.5521H93.9831ZM123.393 138.408L85.3602 85.281V138.408H123.393Z" fill="white"/>
</g>
</g>
</g>
<defs>
<clipPath id="clip0_107_124">
<rect width="256" height="256" rx="128" fill="white"/>
</clipPath>
</defs>
</svg>
