<svg width="1805" height="268" viewBox="0 0 1805 268" fill="none" xmlns="http://www.w3.org/2000/svg">
<path d="M0 263.323V0H92.3513C126.104 0 152.2 5.61258 170.639 16.8377C189.39 27.7511 198.766 47.5508 198.766 76.2374C198.766 96.1931 193.61 112.875 183.296 126.283C173.295 139.69 158.138 146.394 137.824 146.394C150.012 146.394 159.076 149.045 165.013 154.346C170.951 159.646 175.014 166.35 177.202 174.457C179.39 182.252 180.796 190.36 181.421 198.778C182.046 207.197 182.984 214.837 184.234 221.696C185.484 228.556 187.984 233.546 191.734 236.663C195.485 239.469 201.891 239.158 210.955 235.728V259.113C206.579 262.855 200.798 265.35 193.61 266.597C186.734 268.157 179.858 267.689 172.983 265.194C166.107 263.012 160.169 258.335 155.169 251.162C150.481 243.679 148.137 232.921 148.137 218.89C148.137 202.364 147.2 189.424 145.324 180.07C143.449 170.716 139.074 163.856 132.198 159.49C125.323 155.125 114.541 152.631 99.8519 152.007C85.1631 151.072 65.0052 151.072 39.3782 152.007V263.323H0ZM39.3782 123.009H93.7577C109.696 123.009 122.823 122.073 133.136 120.202C143.449 118.02 151.106 113.81 156.107 107.574C161.42 101.338 164.076 91.8279 164.076 79.0436C164.076 64.3885 160.951 53.7871 154.7 47.2391C148.45 40.6911 139.23 36.6377 127.042 35.0785C115.166 33.2077 100.633 32.2723 83.4443 32.2723H39.3782V123.009ZM332.824 268C311.26 268 293.603 263.323 279.851 253.969C266.102 244.303 255.943 231.986 249.38 217.019C242.817 202.052 239.535 186.306 239.535 169.78C239.224 151.383 242.662 134.702 249.849 119.735C257.349 104.768 267.977 92.9191 281.726 84.1885C295.79 75.4579 312.512 71.0925 331.887 71.0925C348.451 71.0925 363.295 74.8342 376.422 82.3176C389.862 89.4893 400.487 99.779 408.299 113.187C416.114 126.283 420.333 141.873 420.956 159.958C420.956 160.894 420.956 162.764 420.956 165.571C421.271 168.065 421.425 170.248 421.425 172.119H276.57C276.57 192.074 281.415 207.665 291.102 218.89C301.104 229.803 314.856 235.26 332.355 235.26C345.481 235.26 356.578 231.986 365.639 225.438C375.015 218.578 380.798 209.536 382.985 198.311H420.956C418.144 218.266 409.082 234.949 393.767 248.356C378.454 261.452 358.139 268 332.824 268ZM277.976 152.942H382.047C381.735 149.512 380.798 144.991 379.234 139.379C377.673 133.766 375.015 128.31 371.265 123.009C367.829 117.396 362.827 112.719 356.264 108.977C349.701 105.236 341.262 103.365 330.949 103.365C318.137 103.365 307.978 106.171 300.478 111.784C293.291 117.084 287.821 123.632 284.07 131.428C280.634 138.911 278.602 146.083 277.976 152.942ZM537.232 268C522.855 268 509.26 264.883 496.448 258.646C483.945 252.409 473.789 244.147 465.977 233.857C458.476 223.255 454.726 211.874 454.726 199.714H491.291C491.291 200.338 491.446 202.676 491.76 206.73C492.072 210.783 493.478 215.304 495.979 220.293C498.478 225.282 502.854 229.647 509.105 233.389C515.668 237.131 524.887 239.002 536.764 239.002C549.89 239.002 560.515 236.663 568.641 231.986C576.765 227.309 580.83 220.761 580.83 212.342C580.83 204.547 577.86 198.467 571.923 194.101C565.983 189.736 558.328 186.306 548.952 183.812C539.576 181.005 529.575 178.355 518.95 175.86C508.636 173.366 498.792 170.092 489.416 166.038C480.352 161.673 472.851 155.905 466.914 148.733C461.289 141.25 458.631 131.272 458.945 118.799C458.945 101.962 465.977 89.0216 480.04 79.9791C494.416 70.6248 512.541 65.9477 534.42 65.9477C548.483 65.9477 561.921 68.2862 574.735 72.9634C587.547 77.3288 598.018 84.5002 606.144 94.4782C614.582 104.456 618.644 117.864 618.333 134.702H582.236C582.548 124.1 580.047 116.149 574.735 110.848C569.733 105.236 563.484 101.494 555.984 99.623C548.483 97.4405 541.451 96.3491 534.888 96.3491C522.386 96.3491 512.541 98.6876 505.355 103.365C498.166 107.73 494.573 113.654 494.573 121.138C494.573 129.245 497.54 135.481 503.48 139.846C509.417 143.9 517.074 147.33 526.45 150.136C535.826 152.631 545.671 155.125 555.984 157.62C566.609 160.114 576.611 163.388 585.986 167.442C595.362 171.495 603.017 177.264 608.957 184.747C615.206 192.23 618.333 202.208 618.333 214.681C618.333 233.078 610.675 246.642 595.362 255.372C580.047 263.791 560.672 268 537.232 268ZM719.675 268C703.422 268 690.453 265.037 680.766 259.113C671.39 252.876 664.358 244.771 659.671 234.792C655.294 224.814 652.325 214.213 650.763 202.988C649.512 191.763 648.888 180.849 648.888 170.248V72.0279H687.329V170.248C687.329 181.473 688.421 191.919 690.61 201.585C692.797 211.251 697.174 219.046 703.737 224.97C710.611 230.583 720.925 233.389 734.677 233.389C747.803 233.389 757.959 230.427 765.148 224.503C772.334 218.578 777.336 210.939 780.149 201.585C783.274 192.23 784.992 182.408 785.306 172.119L785.775 72.0279H825.622V263.323H792.338L785.775 223.567H784.837C783.585 227.621 780.618 233.232 775.93 240.405C771.242 247.264 764.365 253.658 755.303 259.581C746.239 265.194 734.362 268 719.675 268ZM863.183 263.323V72.0279H896.936L897.874 116.461H898.811C899.435 114.902 900.686 111.784 902.561 107.106C904.748 102.429 908.03 97.4405 912.406 92.1396C917.094 86.5271 923.188 81.8499 930.689 78.1082C938.189 74.0548 947.408 72.0279 958.347 72.0279C974.91 72.0279 987.098 76.5491 994.913 85.5916C1003.04 94.3222 1008.82 104.612 1012.26 116.461H1013.2C1013.51 114.902 1014.91 111.784 1017.41 107.106C1019.91 102.429 1023.51 97.4405 1028.2 92.1396C1033.2 86.5271 1039.6 81.8499 1047.42 78.1082C1055.23 74.0548 1064.76 72.0279 1076.01 72.0279C1088.2 72.0279 1098.05 74.5225 1105.55 79.5114C1113.36 84.5002 1119.3 91.0482 1123.36 99.1553C1127.73 106.95 1130.7 115.369 1132.27 124.412C1134.14 133.142 1135.24 141.561 1135.55 149.668C1135.86 157.776 1136.02 164.479 1136.02 169.78V263.323H1102.73V169.312C1102.73 164.635 1102.42 158.867 1101.8 152.007C1101.48 144.835 1100.08 137.82 1097.58 130.96C1095.39 123.788 1091.48 118.02 1085.86 113.654C1080.54 108.977 1072.89 106.639 1062.89 106.639C1051.01 106.639 1041.79 109.757 1035.23 115.993C1028.67 122.229 1023.98 130.492 1021.16 140.782C1018.35 150.76 1016.95 161.205 1016.95 172.119V263.323H983.662V169.312C983.662 164.635 983.348 158.867 982.724 152.007C982.41 144.835 981.004 137.82 978.505 130.96C976.316 123.788 972.411 118.02 966.785 113.654C961.472 108.977 953.814 106.639 943.815 106.639C931.938 106.639 922.719 109.757 916.156 115.993C909.593 122.229 904.905 130.492 902.093 140.782C899.28 150.76 897.874 161.205 897.874 172.119V263.323H863.183ZM1200.31 50.9808C1191.88 51.2925 1186.25 49.2659 1183.44 44.9005C1180.63 40.5351 1179.22 35.0785 1179.22 28.5306C1179.22 22.918 1180.63 17.929 1183.44 13.5637C1186.25 9.19837 1191.88 7.0157 1200.31 7.0157C1208.44 7.0157 1213.91 9.19837 1216.72 13.5637C1219.85 17.929 1221.41 22.918 1221.41 28.5306C1221.41 35.0785 1219.85 40.5351 1216.72 44.9005C1213.91 48.954 1208.44 50.9808 1200.31 50.9808ZM1180.63 263.323V72.0279H1219.53V263.323H1180.63ZM1261.44 263.323V234.792L1384.73 101.026H1268V71.0925H1431.61V99.623L1309.72 232.921H1431.61V263.323H1261.44ZM1556.53 268C1534.96 268 1517.3 263.323 1503.56 253.969C1489.8 244.303 1479.65 231.986 1473.08 217.019C1466.52 202.052 1463.24 186.306 1463.24 169.78C1462.93 151.383 1466.36 134.702 1473.55 119.735C1481.05 104.768 1491.68 92.9191 1505.43 84.1885C1519.49 75.4579 1536.21 71.0925 1555.59 71.0925C1572.15 71.0925 1587 74.8342 1600.13 82.3176C1613.56 89.4893 1624.19 99.779 1632 113.187C1639.82 126.283 1644.03 141.873 1644.66 159.958C1644.66 160.894 1644.66 162.764 1644.66 165.571C1644.97 168.065 1645.13 170.248 1645.13 172.119H1500.27C1500.27 192.074 1505.12 207.665 1514.81 218.89C1524.81 229.803 1538.56 235.26 1556.06 235.26C1569.19 235.26 1580.28 231.986 1589.34 225.438C1598.72 218.578 1604.5 209.536 1606.69 198.311H1644.66C1641.85 218.266 1632.78 234.949 1617.47 248.356C1602.16 261.452 1581.84 268 1556.53 268ZM1501.68 152.942H1605.75C1605.44 149.512 1604.5 144.991 1602.94 139.379C1601.37 133.766 1598.72 128.31 1594.97 123.009C1591.53 117.396 1586.53 112.719 1579.97 108.977C1573.4 105.236 1564.97 103.365 1554.65 103.365C1541.84 103.365 1531.68 106.171 1524.18 111.784C1516.99 117.084 1511.52 123.632 1507.77 131.428C1504.34 138.911 1502.3 146.083 1501.68 152.942ZM1685.93 263.323V72.0279H1722.02L1725.31 123.944C1727.18 115.525 1730.77 107.418 1736.09 99.623C1741.71 91.5159 1749.37 84.9679 1759.06 79.9791C1769.06 74.6782 1781.72 72.0279 1797.03 72.0279H1805V115.058H1796.56C1777.5 115.058 1762.81 117.552 1752.5 122.541C1742.18 127.218 1734.99 134.234 1730.93 143.588C1726.87 152.631 1724.84 163.856 1724.84 177.264V263.323H1685.93Z" fill="url(#paint0_linear_204_303)"/>
<defs>
<linearGradient id="paint0_linear_204_303" x1="873.5" y1="-3.5123e-05" x2="188" y2="879" gradientUnits="userSpaceOnUse">
<stop stop-color="#4F0ED1"/>
<stop offset="0.27" stop-color="#2226AD"/>
<stop offset="0.46" stop-color="#6857D8"/>
<stop offset="0.83" stop-color="#63A1E5"/>
<stop offset="0.985" stop-color="#746EE4"/>
</linearGradient>
</defs>
</svg>
