<svg width="5207" height="2560" viewBox="0 0 5207 2560" fill="none" xmlns="http://www.w3.org/2000/svg">
<rect width="2560" height="5206.25" transform="matrix(0 -1 1 0 0 2560)" fill="white"/>
<g opacity="0.5" clip-path="url(#clip0_213_317)">
<rect width="2560" height="5206.25" transform="matrix(0 -1 1 0 0 2560)" fill="white"/>
<rect y="2560" width="2560" height="5206.25" transform="rotate(-90 0 2560)" fill="url(#paint0_linear_213_317)"/>
<g filter="url(#filter0_f_213_317)">
<ellipse cx="5030.03" cy="2278.65" rx="677.102" ry="677.06" transform="rotate(-90 5030.03 2278.65)" fill="#0C25E8" fill-opacity="0.9"/>
</g>
<g filter="url(#filter1_f_213_317)">
<ellipse cx="743.959" cy="1160.72" rx="743.959" ry="1160.72" transform="matrix(-0.221205 -0.975227 0.975221 -0.221231 105.545 2201.74)" fill="url(#paint1_radial_213_317)" fill-opacity="0.9"/>
</g>
<g filter="url(#filter2_f_213_317)">
<path d="M599.508 -555.12C1236.77 -596.193 1815.45 -357.72 1839.5 15.4591C1863.55 388.638 1088.63 809.168 451.374 850.241C-185.887 891.314 -486.761 568.127 -510.811 194.949C-534.86 -178.23 -37.7533 -514.047 599.508 -555.12Z" fill="#6B14D1" fill-opacity="0.7"/>
</g>
<g filter="url(#filter3_f_213_317)">
<path d="M2462.05 327.729C2941.84 327.729 3412.23 666.726 3412.23 1170.93C3412.23 1675.13 3023.29 2083.86 2543.5 2083.86C2063.71 2083.86 1674.76 1675.13 1674.76 1170.93C1674.76 666.726 1982.26 327.729 2462.05 327.729Z" fill="url(#paint2_linear_213_317)" fill-opacity="0.9"/>
</g>
<path d="M2348.73 500.869C2826.81 500.869 3214.37 888.457 3214.37 1366.57C3214.37 1844.68 2826.81 2232.27 2348.73 2232.27C1870.64 2232.27 1483.08 1844.68 1483.08 1366.57C1483.08 888.457 1870.64 500.869 2348.73 500.869Z" fill="url(#paint3_linear_213_317)"/>
<mask id="mask0_213_317" style="mask-type:alpha" maskUnits="userSpaceOnUse" x="1483" y="500" width="1732" height="1733">
<path d="M2348.73 500.869C2826.81 500.869 3214.37 888.457 3214.37 1366.57C3214.37 1844.68 2826.81 2232.27 2348.73 2232.27C1870.64 2232.27 1483.08 1844.68 1483.08 1366.57C1483.08 888.457 1870.64 500.869 2348.73 500.869Z" fill="url(#paint4_linear_213_317)"/>
</mask>
<g mask="url(#mask0_213_317)">
<g filter="url(#filter4_f_213_317)">
<path fill-rule="evenodd" clip-rule="evenodd" d="M2768.99 2123.58C2561.65 1991.95 2387.38 1752.23 2307.15 1452.73C2209.08 1086.65 2277.32 727.7 2459.57 507.9C2885.31 562.322 3214.37 926.015 3214.37 1366.57C3214.37 1692.16 3034.64 1975.77 2768.99 2123.58Z" fill="url(#paint5_linear_213_317)"/>
</g>
</g>
<g filter="url(#filter5_f_213_317)">
<ellipse cx="368.829" cy="356.247" rx="368.829" ry="356.247" transform="matrix(-0.282029 -0.959406 0.959397 -0.282061 2003.22 1993.39)" fill="#341CB3" fill-opacity="0.9"/>
</g>
<mask id="mask1_213_317" style="mask-type:alpha" maskUnits="userSpaceOnUse" x="1483" y="500" width="1732" height="1733">
<path d="M2348.73 500.869C2826.81 500.869 3214.37 888.457 3214.37 1366.57C3214.37 1844.68 2826.81 2232.27 2348.73 2232.27C1870.64 2232.27 1483.08 1844.68 1483.08 1366.57C1483.08 888.457 1870.64 500.869 2348.73 500.869Z" fill="url(#paint6_linear_213_317)"/>
</mask>
<g mask="url(#mask1_213_317)">
<g filter="url(#filter6_f_213_317)">
<path fill-rule="evenodd" clip-rule="evenodd" d="M2646.13 553.314C2960.93 668.483 3190.18 961.251 3212.57 1310.31C3147.57 1346.23 3073.49 1366.57 2994.87 1366.57C2737.04 1366.57 2528.04 1147.86 2528.04 878.068C2528.04 753.394 2572.67 639.629 2646.13 553.314Z" fill="#49ADFF"/>
</g>
</g>
<mask id="mask2_213_317" style="mask-type:alpha" maskUnits="userSpaceOnUse" x="1483" y="500" width="1732" height="1733">
<path d="M2348.73 500.869C2826.81 500.869 3214.37 888.457 3214.37 1366.57C3214.37 1844.68 2826.81 2232.27 2348.73 2232.27C1870.64 2232.27 1483.08 1844.68 1483.08 1366.57C1483.08 888.457 1870.64 500.869 2348.73 500.869Z" fill="url(#paint7_linear_213_317)"/>
</mask>
<g mask="url(#mask2_213_317)">
<g filter="url(#filter7_f_213_317)">
<path fill-rule="evenodd" clip-rule="evenodd" d="M2127.1 2203.64C1756.39 2105.73 1483.08 1768.07 1483.08 1366.57C1483.08 978.644 1738.22 650.314 2089.83 540.249C2112.38 567.771 2068.08 642.691 2007.09 745.848C1916.53 899.035 1789.15 1114.49 1789.15 1329.47C1789.15 1542.39 1924.64 1781.24 2024.86 1957.92C2092.52 2077.19 2144.1 2168.12 2127.1 2203.64Z" fill="url(#paint8_linear_213_317)"/>
</g>
</g>
<mask id="mask3_213_317" style="mask-type:alpha" maskUnits="userSpaceOnUse" x="1483" y="500" width="1732" height="1733">
<path d="M2348.73 500.869C2826.81 500.869 3214.37 888.457 3214.37 1366.57C3214.37 1844.68 2826.81 2232.27 2348.73 2232.27C1870.64 2232.27 1483.08 1844.68 1483.08 1366.57C1483.08 888.457 1870.64 500.869 2348.73 500.869Z" fill="url(#paint9_linear_213_317)"/>
</mask>
<g mask="url(#mask3_213_317)">
<g filter="url(#filter8_f_213_317)">
<path fill-rule="evenodd" clip-rule="evenodd" d="M1508.5 1157.48C1602.02 780.38 1942.73 500.869 2348.72 500.869C2377.72 500.869 2406.37 502.294 2434.63 505.079C2546.48 758.729 2438.49 1068.23 2177.38 1216.76C1951.91 1345.01 1681.63 1313.77 1508.5 1157.48Z" fill="url(#paint10_linear_213_317)"/>
</g>
</g>
<g filter="url(#filter9_f_213_317)">
<path d="M2348.73 502.87C2825.7 502.87 3212.37 889.561 3212.37 1366.57C3212.37 1843.58 2825.7 2230.27 2348.73 2230.27C1871.75 2230.27 1485.08 1843.58 1485.08 1366.57C1485.08 889.561 1871.75 502.87 2348.73 502.87Z" stroke="url(#paint11_linear_213_317)" stroke-width="4"/>
</g>
<g filter="url(#filter10_f_213_317)">
<ellipse cx="225.699" cy="123.665" rx="225.699" ry="123.665" transform="matrix(0.327672 -0.944792 0.944779 0.327708 1360.3 1276.48)" fill="#BA27A0"/>
</g>
<g filter="url(#filter11_f_213_317)">
<ellipse cx="4711.59" cy="238.068" rx="1041.93" ry="995.494" transform="rotate(-90 4711.59 238.068)" fill="#14039E"/>
</g>
<ellipse cx="4788.88" cy="114.396" rx="918.261" ry="918.204" transform="rotate(-90 4788.88 114.396)" fill="url(#paint12_linear_213_317)"/>
<mask id="mask4_213_317" style="mask-type:alpha" maskUnits="userSpaceOnUse" x="3870" y="-804" width="1838" height="1837">
<ellipse cx="4788.88" cy="114.396" rx="918.261" ry="918.204" transform="rotate(-90 4788.88 114.396)" fill="url(#paint13_linear_213_317)"/>
</mask>
<g mask="url(#mask4_213_317)">
<g filter="url(#filter12_f_213_317)">
<path fill-rule="evenodd" clip-rule="evenodd" d="M5342.28 847.208C5188.4 963.612 4996.7 1032.66 4788.88 1032.66C4625.66 1032.66 4472.38 990.064 4339.55 915.385L5342.28 -191.69V847.208Z" fill="url(#paint14_linear_213_317)"/>
</g>
</g>
<g filter="url(#filter13_f_213_317)">
<ellipse cx="432.823" cy="2025.12" rx="961.546" ry="946.028" transform="rotate(-90 432.823 2025.12)" fill="#E26AC5"/>
</g>
<ellipse cx="355.534" cy="2278.65" rx="918.261" ry="918.204" transform="rotate(-90 355.534 2278.65)" fill="url(#paint15_linear_213_317)"/>
<g filter="url(#filter14_f_213_317)">
<path d="M355.534 1362.39C861.54 1362.39 1271.74 1772.61 1271.74 2278.65C1271.74 2784.68 861.54 3194.91 355.534 3194.91C-150.471 3194.91 -560.67 2784.68 -560.67 2278.65C-560.67 1772.61 -150.471 1362.39 355.534 1362.39Z" stroke="url(#paint16_linear_213_317)" stroke-width="4"/>
</g>
</g>
<defs>
<filter id="filter0_f_213_317" x="3152.97" y="401.546" width="3754.12" height="3754.2" filterUnits="userSpaceOnUse" color-interpolation-filters="sRGB">
<feFlood flood-opacity="0" result="BackgroundImageFix"/>
<feBlend mode="normal" in="SourceGraphic" in2="BackgroundImageFix" result="shape"/>
<feGaussianBlur stdDeviation="600" result="effect1_foregroundBlur_213_317"/>
</filter>
<filter id="filter1_f_213_317" x="-1161.07" y="-640.419" width="4468.02" height="3719.68" filterUnits="userSpaceOnUse" color-interpolation-filters="sRGB">
<feFlood flood-opacity="0" result="BackgroundImageFix"/>
<feBlend mode="normal" in="SourceGraphic" in2="BackgroundImageFix" result="shape"/>
<feGaussianBlur stdDeviation="545" result="effect1_foregroundBlur_213_317"/>
</filter>
<filter id="filter2_f_213_317" x="-2161.65" y="-2209.71" width="5651.69" height="4713.48" filterUnits="userSpaceOnUse" color-interpolation-filters="sRGB">
<feFlood flood-opacity="0" result="BackgroundImageFix"/>
<feBlend mode="normal" in="SourceGraphic" in2="BackgroundImageFix" result="shape"/>
<feGaussianBlur stdDeviation="825" result="effect1_foregroundBlur_213_317"/>
</filter>
<filter id="filter3_f_213_317" x="1114.76" y="-232.271" width="2857.48" height="2876.14" filterUnits="userSpaceOnUse" color-interpolation-filters="sRGB">
<feFlood flood-opacity="0" result="BackgroundImageFix"/>
<feBlend mode="normal" in="SourceGraphic" in2="BackgroundImageFix" result="shape"/>
<feGaussianBlur stdDeviation="280" result="effect1_foregroundBlur_213_317"/>
</filter>
<filter id="filter4_f_213_317" x="1462.33" y="-292.1" width="2552.04" height="3215.68" filterUnits="userSpaceOnUse" color-interpolation-filters="sRGB">
<feFlood flood-opacity="0" result="BackgroundImageFix"/>
<feBlend mode="normal" in="SourceGraphic" in2="BackgroundImageFix" result="shape"/>
<feGaussianBlur stdDeviation="400" result="effect1_foregroundBlur_213_317"/>
</filter>
<filter id="filter5_f_213_317" x="1083.63" y="371.107" width="2314.71" height="2335.88" filterUnits="userSpaceOnUse" color-interpolation-filters="sRGB">
<feFlood flood-opacity="0" result="BackgroundImageFix"/>
<feBlend mode="normal" in="SourceGraphic" in2="BackgroundImageFix" result="shape"/>
<feGaussianBlur stdDeviation="400" result="effect1_foregroundBlur_213_317"/>
</filter>
<filter id="filter6_f_213_317" x="1728.04" y="-246.687" width="2284.54" height="2413.26" filterUnits="userSpaceOnUse" color-interpolation-filters="sRGB">
<feFlood flood-opacity="0" result="BackgroundImageFix"/>
<feBlend mode="normal" in="SourceGraphic" in2="BackgroundImageFix" result="shape"/>
<feGaussianBlur stdDeviation="400" result="effect1_foregroundBlur_213_317"/>
</filter>
<filter id="filter7_f_213_317" x="1003.08" y="60.249" width="1607.29" height="2623.39" filterUnits="userSpaceOnUse" color-interpolation-filters="sRGB">
<feFlood flood-opacity="0" result="BackgroundImageFix"/>
<feBlend mode="normal" in="SourceGraphic" in2="BackgroundImageFix" result="shape"/>
<feGaussianBlur stdDeviation="240" result="effect1_foregroundBlur_213_317"/>
</filter>
<filter id="filter8_f_213_317" x="588.496" y="-419.131" width="2809.98" height="2635.64" filterUnits="userSpaceOnUse" color-interpolation-filters="sRGB">
<feFlood flood-opacity="0" result="BackgroundImageFix"/>
<feBlend mode="normal" in="SourceGraphic" in2="BackgroundImageFix" result="shape"/>
<feGaussianBlur stdDeviation="460" result="effect1_foregroundBlur_213_317"/>
</filter>
<filter id="filter9_f_213_317" x="983.078" y="0.869141" width="2731.29" height="2731.4" filterUnits="userSpaceOnUse" color-interpolation-filters="sRGB">
<feFlood flood-opacity="0" result="BackgroundImageFix"/>
<feBlend mode="normal" in="SourceGraphic" in2="BackgroundImageFix" result="shape"/>
<feGaussianBlur stdDeviation="250" result="effect1_foregroundBlur_213_317"/>
</filter>
<filter id="filter10_f_213_317" x="912.801" y="386.674" width="1276.59" height="1434.19" filterUnits="userSpaceOnUse" color-interpolation-filters="sRGB">
<feFlood flood-opacity="0" result="BackgroundImageFix"/>
<feBlend mode="normal" in="SourceGraphic" in2="BackgroundImageFix" result="shape"/>
<feGaussianBlur stdDeviation="250" result="effect1_foregroundBlur_213_317"/>
</filter>
<filter id="filter11_f_213_317" x="3066.1" y="-1453.86" width="3290.99" height="3383.86" filterUnits="userSpaceOnUse" color-interpolation-filters="sRGB">
<feFlood flood-opacity="0" result="BackgroundImageFix"/>
<feBlend mode="normal" in="SourceGraphic" in2="BackgroundImageFix" result="shape"/>
<feGaussianBlur stdDeviation="325" result="effect1_foregroundBlur_213_317"/>
</filter>
<filter id="filter12_f_213_317" x="3439.55" y="-1091.69" width="2802.72" height="3024.35" filterUnits="userSpaceOnUse" color-interpolation-filters="sRGB">
<feFlood flood-opacity="0" result="BackgroundImageFix"/>
<feBlend mode="normal" in="SourceGraphic" in2="BackgroundImageFix" result="shape"/>
<feGaussianBlur stdDeviation="450" result="effect1_foregroundBlur_213_317"/>
</filter>
<filter id="filter13_f_213_317" x="-1343.21" y="233.575" width="3552.06" height="3583.09" filterUnits="userSpaceOnUse" color-interpolation-filters="sRGB">
<feFlood flood-opacity="0" result="BackgroundImageFix"/>
<feBlend mode="normal" in="SourceGraphic" in2="BackgroundImageFix" result="shape"/>
<feGaussianBlur stdDeviation="415" result="effect1_foregroundBlur_213_317"/>
</filter>
<filter id="filter14_f_213_317" x="-762.67" y="1160.39" width="2236.41" height="2236.52" filterUnits="userSpaceOnUse" color-interpolation-filters="sRGB">
<feFlood flood-opacity="0" result="BackgroundImageFix"/>
<feBlend mode="normal" in="SourceGraphic" in2="BackgroundImageFix" result="shape"/>
<feGaussianBlur stdDeviation="100" result="effect1_foregroundBlur_213_317"/>
</filter>
<linearGradient id="paint0_linear_213_317" x1="374.106" y1="2560" x2="2083.67" y2="7766.31" gradientUnits="userSpaceOnUse">
<stop stop-color="#ED7BDA"/>
<stop offset="0.493684" stop-color="#5C0F9F"/>
<stop offset="0.947917" stop-color="#1901A7"/>
</linearGradient>
<radialGradient id="paint1_radial_213_317" cx="0" cy="0" r="1" gradientUnits="userSpaceOnUse" gradientTransform="translate(856.019 424.72) rotate(90.638) scale(1079.86 692.226)">
<stop stop-color="#FF98E6"/>
<stop offset="0.901042" stop-color="#ED74D0"/>
</radialGradient>
<linearGradient id="paint2_linear_213_317" x1="3134.72" y1="562.303" x2="1858.7" y2="1122.72" gradientUnits="userSpaceOnUse">
<stop stop-color="#1B0280"/>
<stop offset="1" stop-color="#1B0280" stop-opacity="0.5"/>
</linearGradient>
<linearGradient id="paint3_linear_213_317" x1="1569.64" y1="1669.57" x2="3214.39" y2="1106.92" gradientUnits="userSpaceOnUse">
<stop stop-color="#FF32C9"/>
<stop offset="1" stop-color="#278AFF"/>
</linearGradient>
<linearGradient id="paint4_linear_213_317" x1="1569.64" y1="1669.57" x2="3214.39" y2="1106.92" gradientUnits="userSpaceOnUse">
<stop stop-color="#FF32C9"/>
<stop offset="1" stop-color="#278AFF"/>
</linearGradient>
<linearGradient id="paint5_linear_213_317" x1="2255.98" y1="1567.54" x2="3134.03" y2="933.771" gradientUnits="userSpaceOnUse">
<stop stop-color="#2226AF"/>
<stop offset="1" stop-color="#4DABFE"/>
</linearGradient>
<linearGradient id="paint6_linear_213_317" x1="1569.64" y1="1669.57" x2="3214.39" y2="1106.92" gradientUnits="userSpaceOnUse">
<stop stop-color="#FF32C9"/>
<stop offset="1" stop-color="#278AFF"/>
</linearGradient>
<linearGradient id="paint7_linear_213_317" x1="1569.64" y1="1669.57" x2="3214.39" y2="1106.92" gradientUnits="userSpaceOnUse">
<stop stop-color="#FF32C9"/>
<stop offset="1" stop-color="#278AFF"/>
</linearGradient>
<linearGradient id="paint8_linear_213_317" x1="1442.89" y1="1255.26" x2="2523.52" y2="1369.88" gradientUnits="userSpaceOnUse">
<stop stop-color="#EC49C6"/>
<stop offset="1" stop-color="#821B94"/>
</linearGradient>
<linearGradient id="paint9_linear_213_317" x1="1569.64" y1="1669.57" x2="3214.39" y2="1106.92" gradientUnits="userSpaceOnUse">
<stop stop-color="#FF32C9"/>
<stop offset="1" stop-color="#278AFF"/>
</linearGradient>
<linearGradient id="paint10_linear_213_317" x1="1714.95" y1="803.865" x2="2200.34" y2="1091.37" gradientUnits="userSpaceOnUse">
<stop stop-color="#A530D3"/>
<stop offset="1" stop-color="#5B22B2"/>
</linearGradient>
<linearGradient id="paint11_linear_213_317" x1="1483.08" y1="1539.71" x2="3140.2" y2="871.955" gradientUnits="userSpaceOnUse">
<stop stop-color="#FF2EC4"/>
<stop offset="1" stop-color="#41ABFF"/>
</linearGradient>
<linearGradient id="paint12_linear_213_317" x1="4739.41" y1="-741.976" x2="4142.76" y2="590.53" gradientUnits="userSpaceOnUse">
<stop stop-color="#5749E1"/>
<stop offset="1" stop-color="#2343C4"/>
<stop offset="1" stop-color="#7590FF"/>
</linearGradient>
<linearGradient id="paint13_linear_213_317" x1="4739.41" y1="-741.976" x2="4142.76" y2="590.53" gradientUnits="userSpaceOnUse">
<stop stop-color="#5749E1"/>
<stop offset="1" stop-color="#2343C4"/>
<stop offset="1" stop-color="#7590FF"/>
</linearGradient>
<linearGradient id="paint14_linear_213_317" x1="4498.27" y1="1159.42" x2="5342.35" y2="-3.04174" gradientUnits="userSpaceOnUse">
<stop stop-color="#4A67FB"/>
<stop offset="1" stop-color="#435BD8" stop-opacity="0.5"/>
</linearGradient>
<linearGradient id="paint15_linear_213_317" x1="1156.31" y1="2658.91" x2="61.8516" y2="1984.89" gradientUnits="userSpaceOnUse">
<stop stop-color="#9C1F9E"/>
<stop offset="1" stop-color="#4C0E85"/>
</linearGradient>
<linearGradient id="paint16_linear_213_317" x1="593.587" y1="1425.31" x2="58.6871" y2="2544.52" gradientUnits="userSpaceOnUse">
<stop stop-color="#B617B2"/>
<stop offset="1" stop-color="#30047C"/>
</linearGradient>
<clipPath id="clip0_213_317">
<rect width="2560" height="5206.25" fill="white" transform="matrix(0 -1 1 0 0 2560)"/>
</clipPath>
</defs>
</svg>
