<svg width="1980" height="1980" viewBox="0 0 1980 1980" fill="none" xmlns="http://www.w3.org/2000/svg">
<g clip-path="url(#clip0_215_540)">
<rect width="1980" height="1980" rx="990" fill="#B3A0FF" fill-opacity="0.1"/>
<mask id="mask0_215_540" style="mask-type:alpha" maskUnits="userSpaceOnUse" x="204" y="204" width="1573" height="1573">
<path d="M1776.63 990.265C1776.63 1424.51 1424.58 1776.53 990.313 1776.53C556.044 1776.53 204 1424.51 204 990.265C204 556.023 556.044 204 990.313 204C1424.58 204 1776.63 556.023 1776.63 990.265Z" fill="url(#paint0_linear_215_540)"/>
</mask>
<g mask="url(#mask0_215_540)">
<g filter="url(#filter0_f_215_540)">
<path fill-rule="evenodd" clip-rule="evenodd" d="M302.722 1371.99C422.28 1183.66 640.015 1025.37 912.057 952.497C1244.56 863.422 1570.6 925.407 1770.24 1090.95C1720.81 1477.64 1390.47 1776.53 990.313 1776.53C694.582 1776.53 436.981 1613.28 302.722 1371.99Z" fill="url(#paint1_linear_215_540)"/>
</g>
</g>
<g filter="url(#filter1_f_215_540)">
<ellipse cx="335.006" cy="323.578" rx="335.006" ry="323.578" transform="matrix(0.959406 -0.282029 0.282061 0.959397 420.977 676.445)" fill="#341CB3" fill-opacity="0.9"/>
</g>
<mask id="mask1_215_540" style="mask-type:alpha" maskUnits="userSpaceOnUse" x="204" y="204" width="1573" height="1573">
<path d="M1776.63 990.265C1776.63 1424.51 1424.58 1776.53 990.313 1776.53C556.044 1776.53 204 1424.51 204 990.265C204 556.023 556.044 204 990.313 204C1424.58 204 1776.63 556.023 1776.63 990.265Z" fill="url(#paint2_linear_215_540)"/>
</mask>
<g mask="url(#mask1_215_540)">
<g filter="url(#filter2_f_215_540)">
<path fill-rule="evenodd" clip-rule="evenodd" d="M1728.99 1260.39C1624.38 1546.33 1358.46 1754.56 1041.41 1774.89C1008.79 1715.85 990.313 1648.57 990.313 1577.15C990.313 1342.97 1188.97 1153.13 1434.02 1153.13C1547.26 1153.13 1650.59 1193.67 1728.99 1260.39Z" fill="#49ADFF"/>
</g>
</g>
<mask id="mask2_215_540" style="mask-type:alpha" maskUnits="userSpaceOnUse" x="204" y="204" width="1573" height="1573">
<path d="M1776.63 990.265C1776.63 1424.51 1424.58 1776.53 990.313 1776.53C556.044 1776.53 204 1424.51 204 990.265C204 556.023 556.044 204 990.313 204C1424.58 204 1776.63 556.023 1776.63 990.265Z" fill="url(#paint3_linear_215_540)"/>
</mask>
<g mask="url(#mask2_215_540)">
<g filter="url(#filter3_f_215_540)">
<path fill-rule="evenodd" clip-rule="evenodd" d="M230.008 788.96C318.934 452.246 625.631 204 990.313 204C1342.66 204 1640.89 435.742 1740.86 755.114C1715.86 775.59 1647.81 735.357 1554.11 679.961C1414.97 597.7 1219.28 482 1024.01 482C830.614 482 613.667 605.067 453.187 696.101C344.861 757.551 262.264 804.405 230.008 788.96Z" fill="url(#paint4_linear_215_540)"/>
</g>
</g>
<mask id="mask3_215_540" style="mask-type:alpha" maskUnits="userSpaceOnUse" x="204" y="204" width="1573" height="1573">
<path d="M1776.63 990.265C1776.63 1424.51 1424.58 1776.53 990.313 1776.53C556.044 1776.53 204 1424.51 204 990.265C204 556.023 556.044 204 990.313 204C1424.58 204 1776.63 556.023 1776.63 990.265Z" fill="url(#paint5_linear_215_540)"/>
</mask>
<g mask="url(#mask3_215_540)">
<g filter="url(#filter4_f_215_540)">
<path fill-rule="evenodd" clip-rule="evenodd" d="M1180.23 227.086C1522.75 312.032 1776.63 621.501 1776.63 990.263C1776.63 1016.6 1775.33 1042.62 1772.8 1068.29C1542.41 1169.88 1261.29 1071.8 1126.39 834.635C1009.9 629.841 1038.27 384.347 1180.23 227.086Z" fill="url(#paint6_linear_215_540)"/>
</g>
</g>
<path fill-rule="evenodd" clip-rule="evenodd" d="M1311 1388H1268.97H691.585H670V1366.4V614.603V593H691.585H984.057C1049 593 1104.05 604.548 1147.84 629.232C1189.98 652.676 1223.07 684.943 1246.66 725.866C1270.23 766.759 1281.93 811.919 1281.93 860.88C1281.93 921.864 1263.05 976.917 1225.6 1025.33L1225.55 1025.4L1225.5 1025.46C1194.67 1064.68 1156.93 1093.24 1112.54 1110.81L1286.52 1353.82L1311 1388ZM753.101 1129.84H1002.4H1002.75L1003.1 1129.83L1025.05 1129.12L1151.32 1304.83H753.101V1129.84ZM801.571 676.173L1062.19 1040.6C1099.56 1030.12 1130.77 1009.66 1156.32 978.861C1184.75 944.58 1198.82 905.537 1198.82 860.88C1198.82 824.993 1190.08 792.862 1172.76 763.979C1155.57 735.296 1131.42 713.26 1099.75 697.734L1099.67 697.695L1099.59 697.656C1071.96 683.828 1034.25 676.173 985.136 676.173H801.571ZM966.881 1046.67L753.101 747.784V1046.67H966.881Z" fill="white" fill-opacity="0.9"/>
</g>
<defs>
<filter id="filter0_f_215_540" x="-497.278" y="111.793" width="3067.52" height="2464.74" filterUnits="userSpaceOnUse" color-interpolation-filters="sRGB">
<feFlood flood-opacity="0" result="BackgroundImageFix"/>
<feBlend mode="normal" in="SourceGraphic" in2="BackgroundImageFix" result="shape"/>
<feGaussianBlur stdDeviation="400" result="effect1_foregroundBlur_215_540"/>
</filter>
<filter id="filter1_f_215_540" x="-300.548" y="-232.182" width="2268.4" height="2249.17" filterUnits="userSpaceOnUse" color-interpolation-filters="sRGB">
<feFlood flood-opacity="0" result="BackgroundImageFix"/>
<feBlend mode="normal" in="SourceGraphic" in2="BackgroundImageFix" result="shape"/>
<feGaussianBlur stdDeviation="400" result="effect1_foregroundBlur_215_540"/>
</filter>
<filter id="filter2_f_215_540" x="190.313" y="353.133" width="2338.68" height="2221.76" filterUnits="userSpaceOnUse" color-interpolation-filters="sRGB">
<feFlood flood-opacity="0" result="BackgroundImageFix"/>
<feBlend mode="normal" in="SourceGraphic" in2="BackgroundImageFix" result="shape"/>
<feGaussianBlur stdDeviation="400" result="effect1_foregroundBlur_215_540"/>
</filter>
<filter id="filter3_f_215_540" x="-249.992" y="-276" width="2470.85" height="1547.93" filterUnits="userSpaceOnUse" color-interpolation-filters="sRGB">
<feFlood flood-opacity="0" result="BackgroundImageFix"/>
<feBlend mode="normal" in="SourceGraphic" in2="BackgroundImageFix" result="shape"/>
<feGaussianBlur stdDeviation="240" result="effect1_foregroundBlur_215_540"/>
</filter>
<filter id="filter4_f_215_540" x="133.952" y="-692.914" width="2562.67" height="2721.03" filterUnits="userSpaceOnUse" color-interpolation-filters="sRGB">
<feFlood flood-opacity="0" result="BackgroundImageFix"/>
<feBlend mode="normal" in="SourceGraphic" in2="BackgroundImageFix" result="shape"/>
<feGaussianBlur stdDeviation="460" result="effect1_foregroundBlur_215_540"/>
</filter>
<linearGradient id="paint0_linear_215_540" x1="715.104" y1="282.626" x2="1226.15" y2="1776.55" gradientUnits="userSpaceOnUse">
<stop stop-color="#FF32C9"/>
<stop offset="1" stop-color="#278AFF"/>
</linearGradient>
<linearGradient id="paint1_linear_215_540" x1="807.776" y1="906.022" x2="1383.42" y2="1703.55" gradientUnits="userSpaceOnUse">
<stop stop-color="#2226AF"/>
<stop offset="1" stop-color="#4DABFE"/>
</linearGradient>
<linearGradient id="paint2_linear_215_540" x1="715.104" y1="282.626" x2="1226.15" y2="1776.55" gradientUnits="userSpaceOnUse">
<stop stop-color="#FF32C9"/>
<stop offset="1" stop-color="#278AFF"/>
</linearGradient>
<linearGradient id="paint3_linear_215_540" x1="715.104" y1="282.626" x2="1226.15" y2="1776.55" gradientUnits="userSpaceOnUse">
<stop stop-color="#FF32C9"/>
<stop offset="1" stop-color="#278AFF"/>
</linearGradient>
<linearGradient id="paint4_linear_215_540" x1="1091.41" y1="167.495" x2="987.309" y2="1149.03" gradientUnits="userSpaceOnUse">
<stop stop-color="#EC49C6"/>
<stop offset="1" stop-color="#821B94"/>
</linearGradient>
<linearGradient id="paint5_linear_215_540" x1="715.104" y1="282.626" x2="1226.15" y2="1776.55" gradientUnits="userSpaceOnUse">
<stop stop-color="#FF32C9"/>
<stop offset="1" stop-color="#278AFF"/>
</linearGradient>
<linearGradient id="paint6_linear_215_540" x1="1501.42" y1="414.605" x2="1240.27" y2="855.489" gradientUnits="userSpaceOnUse">
<stop stop-color="#A530D3"/>
<stop offset="1" stop-color="#5B22B2"/>
</linearGradient>
<clipPath id="clip0_215_540">
<rect width="1980" height="1980" rx="990" fill="white"/>
</clipPath>
</defs>
</svg>
